<mxfile host="Electron" agent="Mozilla/5.0 (Windows NT 10.0; Win64; x64) AppleWebKit/537.36 (KHTML, like Gecko) draw.io/26.0.16 Chrome/132.0.6834.196 Electron/34.2.0 Safari/537.36" version="26.0.16">
  <diagram name="Page-1" id="6Yo3J1exqmDdNCMMK7Uz">
    <mxGraphModel dx="281" dy="1713" grid="1" gridSize="10" guides="1" tooltips="1" connect="1" arrows="1" fold="1" page="1" pageScale="1" pageWidth="850" pageHeight="1100" math="0" shadow="0">
      <root>
        <mxCell id="0" />
        <mxCell id="1" parent="0" />
        <mxCell id="1X5gw1tk33bwdtr9NYtR-8" value="" style="rounded=0;whiteSpace=wrap;html=1;fillColor=none;dashed=1;strokeColor=light-dark(#787878, #ededed);" parent="1" vertex="1">
          <mxGeometry x="20" y="80" width="130" height="520" as="geometry" />
        </mxCell>
        <mxCell id="1X5gw1tk33bwdtr9NYtR-9" value="&lt;font style=&quot;font-size: 21px;&quot;&gt;Sources&lt;/font&gt;" style="rounded=0;whiteSpace=wrap;html=1;strokeColor=none;" parent="1" vertex="1">
          <mxGeometry x="45" y="70" width="80" height="20" as="geometry" />
        </mxCell>
        <mxCell id="1X5gw1tk33bwdtr9NYtR-44" style="edgeStyle=orthogonalEdgeStyle;rounded=0;orthogonalLoop=1;jettySize=auto;html=1;entryX=0;entryY=0.5;entryDx=0;entryDy=0;" parent="1" source="1X5gw1tk33bwdtr9NYtR-10" target="1X5gw1tk33bwdtr9NYtR-24" edge="1">
          <mxGeometry relative="1" as="geometry" />
        </mxCell>
        <mxCell id="1X5gw1tk33bwdtr9NYtR-46" style="edgeStyle=orthogonalEdgeStyle;rounded=0;orthogonalLoop=1;jettySize=auto;html=1;entryX=0;entryY=0.5;entryDx=0;entryDy=0;" parent="1" source="1X5gw1tk33bwdtr9NYtR-10" target="1X5gw1tk33bwdtr9NYtR-22" edge="1">
          <mxGeometry relative="1" as="geometry" />
        </mxCell>
        <mxCell id="1X5gw1tk33bwdtr9NYtR-47" style="edgeStyle=orthogonalEdgeStyle;rounded=0;orthogonalLoop=1;jettySize=auto;html=1;" parent="1" source="1X5gw1tk33bwdtr9NYtR-10" target="1X5gw1tk33bwdtr9NYtR-23" edge="1">
          <mxGeometry relative="1" as="geometry">
            <Array as="points">
              <mxPoint x="190" y="232" />
              <mxPoint x="190" y="232" />
            </Array>
          </mxGeometry>
        </mxCell>
        <mxCell id="1X5gw1tk33bwdtr9NYtR-10" value="&lt;b&gt;CRM&lt;/b&gt;" style="image;aspect=fixed;html=1;points=[];align=center;fontSize=12;image=img/lib/azure2/general/Folder_Blank.svg;" parent="1" vertex="1">
          <mxGeometry x="67.81" y="210" width="54.5" height="44.23" as="geometry" />
        </mxCell>
        <mxCell id="1X5gw1tk33bwdtr9NYtR-11" value="" style="image;aspect=fixed;html=1;points=[];align=center;fontSize=12;image=img/lib/azure2/general/Media_File.svg;" parent="1" vertex="1">
          <mxGeometry x="107.81" y="250.69" width="24.38" height="30" as="geometry" />
        </mxCell>
        <mxCell id="1X5gw1tk33bwdtr9NYtR-49" style="edgeStyle=orthogonalEdgeStyle;rounded=0;orthogonalLoop=1;jettySize=auto;html=1;entryX=0;entryY=0.5;entryDx=0;entryDy=0;" parent="1" source="1X5gw1tk33bwdtr9NYtR-12" target="1X5gw1tk33bwdtr9NYtR-32" edge="1">
          <mxGeometry relative="1" as="geometry" />
        </mxCell>
        <mxCell id="1X5gw1tk33bwdtr9NYtR-50" style="edgeStyle=orthogonalEdgeStyle;rounded=0;orthogonalLoop=1;jettySize=auto;html=1;entryX=0;entryY=0.5;entryDx=0;entryDy=0;" parent="1" source="1X5gw1tk33bwdtr9NYtR-12" target="1X5gw1tk33bwdtr9NYtR-30" edge="1">
          <mxGeometry relative="1" as="geometry" />
        </mxCell>
        <mxCell id="1X5gw1tk33bwdtr9NYtR-12" value="&lt;b&gt;ERP&lt;/b&gt;" style="image;aspect=fixed;html=1;points=[];align=center;fontSize=12;image=img/lib/azure2/general/Folder_Blank.svg;" parent="1" vertex="1">
          <mxGeometry x="67.81" y="386.23" width="54.5" height="44.23" as="geometry" />
        </mxCell>
        <mxCell id="1X5gw1tk33bwdtr9NYtR-13" value="" style="image;aspect=fixed;html=1;points=[];align=center;fontSize=12;image=img/lib/azure2/general/Media_File.svg;" parent="1" vertex="1">
          <mxGeometry x="107.81" y="414.46000000000004" width="24.38" height="30" as="geometry" />
        </mxCell>
        <mxCell id="1X5gw1tk33bwdtr9NYtR-16" value="&lt;font style=&quot;font-size: 16px;&quot;&gt;&lt;b style=&quot;&quot;&gt;Bronze Layer&lt;/b&gt;&lt;/font&gt;" style="rounded=1;whiteSpace=wrap;html=1;fillColor=#ffe6cc;strokeColor=#d79b00;" parent="1" vertex="1">
          <mxGeometry x="210" y="70" width="160" height="40" as="geometry" />
        </mxCell>
        <mxCell id="1X5gw1tk33bwdtr9NYtR-17" value="" style="rounded=1;whiteSpace=wrap;html=1;fillColor=default;strokeColor=#d79b00;fillStyle=hatch;" parent="1" vertex="1">
          <mxGeometry x="210" y="110" width="160" height="460" as="geometry" />
        </mxCell>
        <mxCell id="CbVi4KgQ_EtGNgL8O9Gp-10" style="edgeStyle=orthogonalEdgeStyle;rounded=0;orthogonalLoop=1;jettySize=auto;html=1;" parent="1" source="1X5gw1tk33bwdtr9NYtR-22" target="CbVi4KgQ_EtGNgL8O9Gp-4" edge="1">
          <mxGeometry relative="1" as="geometry" />
        </mxCell>
        <mxCell id="1X5gw1tk33bwdtr9NYtR-22" value="&lt;font style=&quot;font-size: 14px;&quot;&gt;crm_sales_details&lt;/font&gt;" style="rounded=1;whiteSpace=wrap;html=1;fillColor=#ffe6cc;strokeColor=#d79b00;" parent="1" vertex="1">
          <mxGeometry x="220" y="160" width="140" height="30" as="geometry" />
        </mxCell>
        <mxCell id="CbVi4KgQ_EtGNgL8O9Gp-11" style="edgeStyle=orthogonalEdgeStyle;rounded=0;orthogonalLoop=1;jettySize=auto;html=1;entryX=0;entryY=0.5;entryDx=0;entryDy=0;" parent="1" source="1X5gw1tk33bwdtr9NYtR-23" target="CbVi4KgQ_EtGNgL8O9Gp-5" edge="1">
          <mxGeometry relative="1" as="geometry" />
        </mxCell>
        <mxCell id="1X5gw1tk33bwdtr9NYtR-23" value="&lt;font style=&quot;font-size: 14px;&quot;&gt;crm_cust_info&lt;/font&gt;" style="rounded=1;whiteSpace=wrap;html=1;fillColor=#ffe6cc;strokeColor=#d79b00;" parent="1" vertex="1">
          <mxGeometry x="220" y="210" width="140" height="31.77" as="geometry" />
        </mxCell>
        <mxCell id="CbVi4KgQ_EtGNgL8O9Gp-12" style="edgeStyle=orthogonalEdgeStyle;rounded=0;orthogonalLoop=1;jettySize=auto;html=1;entryX=0;entryY=0.5;entryDx=0;entryDy=0;" parent="1" source="1X5gw1tk33bwdtr9NYtR-24" target="CbVi4KgQ_EtGNgL8O9Gp-6" edge="1">
          <mxGeometry relative="1" as="geometry" />
        </mxCell>
        <mxCell id="1X5gw1tk33bwdtr9NYtR-24" value="&lt;font style=&quot;font-size: 14px;&quot;&gt;crm_prd_info&lt;/font&gt;" style="rounded=1;whiteSpace=wrap;html=1;fillColor=#ffe6cc;strokeColor=#d79b00;" parent="1" vertex="1">
          <mxGeometry x="220" y="264.46" width="140" height="31.77" as="geometry" />
        </mxCell>
        <mxCell id="CbVi4KgQ_EtGNgL8O9Gp-13" style="edgeStyle=orthogonalEdgeStyle;rounded=0;orthogonalLoop=1;jettySize=auto;html=1;" parent="1" source="1X5gw1tk33bwdtr9NYtR-30" target="CbVi4KgQ_EtGNgL8O9Gp-7" edge="1">
          <mxGeometry relative="1" as="geometry" />
        </mxCell>
        <mxCell id="1X5gw1tk33bwdtr9NYtR-30" value="&lt;font style=&quot;font-size: 14px;&quot;&gt;erp_cust_az12&lt;/font&gt;" style="rounded=1;whiteSpace=wrap;html=1;fillColor=#ffe6cc;strokeColor=#d79b00;" parent="1" vertex="1">
          <mxGeometry x="220" y="340" width="140" height="30" as="geometry" />
        </mxCell>
        <mxCell id="CbVi4KgQ_EtGNgL8O9Gp-14" style="edgeStyle=orthogonalEdgeStyle;rounded=0;orthogonalLoop=1;jettySize=auto;html=1;" parent="1" source="1X5gw1tk33bwdtr9NYtR-31" target="CbVi4KgQ_EtGNgL8O9Gp-8" edge="1">
          <mxGeometry relative="1" as="geometry" />
        </mxCell>
        <mxCell id="1X5gw1tk33bwdtr9NYtR-31" value="&lt;font style=&quot;font-size: 14px;&quot;&gt;erp_loc_a101&lt;/font&gt;" style="rounded=1;whiteSpace=wrap;html=1;fillColor=#ffe6cc;strokeColor=#d79b00;" parent="1" vertex="1">
          <mxGeometry x="220" y="390" width="140" height="31.77" as="geometry" />
        </mxCell>
        <mxCell id="CbVi4KgQ_EtGNgL8O9Gp-15" style="edgeStyle=orthogonalEdgeStyle;rounded=0;orthogonalLoop=1;jettySize=auto;html=1;" parent="1" source="1X5gw1tk33bwdtr9NYtR-32" target="CbVi4KgQ_EtGNgL8O9Gp-9" edge="1">
          <mxGeometry relative="1" as="geometry" />
        </mxCell>
        <mxCell id="1X5gw1tk33bwdtr9NYtR-32" value="&lt;font style=&quot;font-size: 14px;&quot;&gt;erp_px_cat_g1v2&lt;/font&gt;" style="rounded=1;whiteSpace=wrap;html=1;fillColor=#ffe6cc;strokeColor=#d79b00;" parent="1" vertex="1">
          <mxGeometry x="220" y="444.46" width="140" height="31.77" as="geometry" />
        </mxCell>
        <mxCell id="1X5gw1tk33bwdtr9NYtR-51" style="edgeStyle=orthogonalEdgeStyle;rounded=0;orthogonalLoop=1;jettySize=auto;html=1;" parent="1" source="1X5gw1tk33bwdtr9NYtR-12" edge="1">
          <mxGeometry relative="1" as="geometry">
            <mxPoint x="220" y="408" as="targetPoint" />
          </mxGeometry>
        </mxCell>
        <mxCell id="CbVi4KgQ_EtGNgL8O9Gp-1" value="&lt;font style=&quot;font-size: 30px;&quot;&gt;&lt;b&gt;Data Flow Diagram&lt;/b&gt;&lt;/font&gt;" style="text;html=1;align=center;verticalAlign=middle;resizable=0;points=[];autosize=1;strokeColor=none;fillColor=none;" parent="1" vertex="1">
          <mxGeometry x="95" y="-12" width="290" height="50" as="geometry" />
        </mxCell>
        <mxCell id="CbVi4KgQ_EtGNgL8O9Gp-2" value="&lt;font style=&quot;font-size: 16px;&quot;&gt;&lt;b style=&quot;&quot;&gt;Bronze Layer&lt;/b&gt;&lt;/font&gt;" style="rounded=1;whiteSpace=wrap;html=1;fillColor=#f5f5f5;strokeColor=#666666;fontColor=#333333;" parent="1" vertex="1">
          <mxGeometry x="440" y="70" width="160" height="40" as="geometry" />
        </mxCell>
        <mxCell id="CbVi4KgQ_EtGNgL8O9Gp-3" value="" style="rounded=1;whiteSpace=wrap;html=1;fillColor=#f5f5f5;strokeColor=#666666;fillStyle=hatch;fontColor=#333333;" parent="1" vertex="1">
          <mxGeometry x="440" y="110" width="160" height="460" as="geometry" />
        </mxCell>
        <mxCell id="CbVi4KgQ_EtGNgL8O9Gp-4" value="&lt;font style=&quot;font-size: 14px;&quot;&gt;crm_sales_details&lt;/font&gt;" style="rounded=1;whiteSpace=wrap;html=1;fillColor=#f5f5f5;strokeColor=#666666;fontColor=#333333;" parent="1" vertex="1">
          <mxGeometry x="450" y="160" width="140" height="30" as="geometry" />
        </mxCell>
        <mxCell id="CbVi4KgQ_EtGNgL8O9Gp-5" value="&lt;font style=&quot;font-size: 14px;&quot;&gt;crm_cust_info&lt;/font&gt;" style="rounded=1;whiteSpace=wrap;html=1;fillColor=#f5f5f5;strokeColor=#666666;fontColor=#333333;" parent="1" vertex="1">
          <mxGeometry x="450" y="210" width="140" height="31.77" as="geometry" />
        </mxCell>
        <mxCell id="CbVi4KgQ_EtGNgL8O9Gp-6" value="&lt;font style=&quot;font-size: 14px;&quot;&gt;crm_prd_info&lt;/font&gt;" style="rounded=1;whiteSpace=wrap;html=1;fillColor=#f5f5f5;strokeColor=#666666;fontColor=#333333;" parent="1" vertex="1">
          <mxGeometry x="450" y="264.46" width="140" height="31.77" as="geometry" />
        </mxCell>
        <mxCell id="CbVi4KgQ_EtGNgL8O9Gp-7" value="&lt;font style=&quot;font-size: 14px;&quot;&gt;erp_cust_az12&lt;/font&gt;" style="rounded=1;whiteSpace=wrap;html=1;fillColor=#f5f5f5;strokeColor=#666666;fontColor=#333333;" parent="1" vertex="1">
          <mxGeometry x="450" y="340" width="140" height="30" as="geometry" />
        </mxCell>
        <mxCell id="CbVi4KgQ_EtGNgL8O9Gp-8" value="&lt;font style=&quot;font-size: 14px;&quot;&gt;erp_loc_a101&lt;/font&gt;" style="rounded=1;whiteSpace=wrap;html=1;fillColor=#f5f5f5;strokeColor=#666666;fontColor=#333333;" parent="1" vertex="1">
          <mxGeometry x="450" y="390" width="140" height="31.77" as="geometry" />
        </mxCell>
        <mxCell id="CbVi4KgQ_EtGNgL8O9Gp-9" value="&lt;font style=&quot;font-size: 14px;&quot;&gt;erp_px_cat_g1v2&lt;/font&gt;" style="rounded=1;whiteSpace=wrap;html=1;fillColor=#f5f5f5;strokeColor=#666666;fontColor=#333333;" parent="1" vertex="1">
          <mxGeometry x="450" y="444.46" width="140" height="31.77" as="geometry" />
        </mxCell>
        <mxCell id="BeOvU1aISSLEqPLFuHPy-8" value="&lt;font style=&quot;font-size: 16px;&quot;&gt;&lt;b style=&quot;&quot;&gt;Gold Layer&lt;/b&gt;&lt;/font&gt;" style="rounded=1;whiteSpace=wrap;html=1;fillColor=#fff2cc;strokeColor=#d6b656;" vertex="1" parent="1">
          <mxGeometry x="670" y="70" width="160" height="40" as="geometry" />
        </mxCell>
        <mxCell id="BeOvU1aISSLEqPLFuHPy-9" value="" style="rounded=1;whiteSpace=wrap;html=1;fillColor=#fff2cc;strokeColor=#d6b656;fillStyle=hatch;" vertex="1" parent="1">
          <mxGeometry x="670" y="110" width="160" height="460" as="geometry" />
        </mxCell>
        <mxCell id="BeOvU1aISSLEqPLFuHPy-10" value="&lt;font style=&quot;font-size: 14px;&quot;&gt;fact_sales&lt;/font&gt;" style="rounded=1;whiteSpace=wrap;html=1;fillColor=#fff2cc;strokeColor=#d6b656;" vertex="1" parent="1">
          <mxGeometry x="680" y="210.88" width="140" height="30" as="geometry" />
        </mxCell>
        <mxCell id="BeOvU1aISSLEqPLFuHPy-11" value="&lt;font style=&quot;font-size: 14px;&quot;&gt;dim_customers&lt;/font&gt;" style="rounded=1;whiteSpace=wrap;html=1;fillColor=#fff2cc;strokeColor=#d6b656;" vertex="1" parent="1">
          <mxGeometry x="680" y="300" width="140" height="31.77" as="geometry" />
        </mxCell>
        <mxCell id="BeOvU1aISSLEqPLFuHPy-12" value="&lt;font style=&quot;font-size: 14px;&quot;&gt;dim_products&lt;/font&gt;" style="rounded=1;whiteSpace=wrap;html=1;fillColor=#fff2cc;strokeColor=#d6b656;" vertex="1" parent="1">
          <mxGeometry x="680" y="390" width="140" height="31.77" as="geometry" />
        </mxCell>
        <mxCell id="BeOvU1aISSLEqPLFuHPy-17" value="" style="endArrow=classic;html=1;rounded=0;exitX=1;exitY=0.5;exitDx=0;exitDy=0;entryX=0;entryY=0.5;entryDx=0;entryDy=0;" edge="1" parent="1" source="CbVi4KgQ_EtGNgL8O9Gp-4" target="BeOvU1aISSLEqPLFuHPy-10">
          <mxGeometry width="50" height="50" relative="1" as="geometry">
            <mxPoint x="570" y="300" as="sourcePoint" />
            <mxPoint x="620" y="250" as="targetPoint" />
          </mxGeometry>
        </mxCell>
        <mxCell id="BeOvU1aISSLEqPLFuHPy-18" value="" style="endArrow=classic;html=1;rounded=0;exitX=1;exitY=0.5;exitDx=0;exitDy=0;entryX=0;entryY=0.25;entryDx=0;entryDy=0;jumpStyle=gap;" edge="1" parent="1" source="CbVi4KgQ_EtGNgL8O9Gp-5" target="BeOvU1aISSLEqPLFuHPy-11">
          <mxGeometry width="50" height="50" relative="1" as="geometry">
            <mxPoint x="600" y="185" as="sourcePoint" />
            <mxPoint x="690" y="236" as="targetPoint" />
          </mxGeometry>
        </mxCell>
        <mxCell id="BeOvU1aISSLEqPLFuHPy-19" value="" style="endArrow=classic;html=1;rounded=0;exitX=1;exitY=0.5;exitDx=0;exitDy=0;jumpStyle=gap;" edge="1" parent="1" source="CbVi4KgQ_EtGNgL8O9Gp-7">
          <mxGeometry width="50" height="50" relative="1" as="geometry">
            <mxPoint x="610" y="195" as="sourcePoint" />
            <mxPoint x="680" y="312" as="targetPoint" />
          </mxGeometry>
        </mxCell>
        <mxCell id="BeOvU1aISSLEqPLFuHPy-20" value="" style="endArrow=classic;html=1;rounded=0;exitX=1;exitY=0.5;exitDx=0;exitDy=0;entryX=0;entryY=0.5;entryDx=0;entryDy=0;jumpStyle=gap;" edge="1" parent="1" source="CbVi4KgQ_EtGNgL8O9Gp-8" target="BeOvU1aISSLEqPLFuHPy-11">
          <mxGeometry width="50" height="50" relative="1" as="geometry">
            <mxPoint x="620" y="205" as="sourcePoint" />
            <mxPoint x="710" y="256" as="targetPoint" />
          </mxGeometry>
        </mxCell>
        <mxCell id="BeOvU1aISSLEqPLFuHPy-21" value="" style="endArrow=classic;html=1;rounded=0;exitX=1;exitY=0.5;exitDx=0;exitDy=0;entryX=0;entryY=0.5;entryDx=0;entryDy=0;jumpStyle=gap;" edge="1" parent="1" source="CbVi4KgQ_EtGNgL8O9Gp-6" target="BeOvU1aISSLEqPLFuHPy-12">
          <mxGeometry width="50" height="50" relative="1" as="geometry">
            <mxPoint x="630" y="215" as="sourcePoint" />
            <mxPoint x="720" y="266" as="targetPoint" />
          </mxGeometry>
        </mxCell>
        <mxCell id="BeOvU1aISSLEqPLFuHPy-22" value="" style="endArrow=classic;html=1;rounded=0;exitX=1;exitY=0.5;exitDx=0;exitDy=0;entryX=0;entryY=0.5;entryDx=0;entryDy=0;jumpStyle=gap;" edge="1" parent="1" source="CbVi4KgQ_EtGNgL8O9Gp-9" target="BeOvU1aISSLEqPLFuHPy-12">
          <mxGeometry width="50" height="50" relative="1" as="geometry">
            <mxPoint x="640" y="225" as="sourcePoint" />
            <mxPoint x="730" y="276" as="targetPoint" />
          </mxGeometry>
        </mxCell>
      </root>
    </mxGraphModel>
  </diagram>
</mxfile>
